<svg width="24" height="24" viewBox="0 0 24 24" fill="none" xmlns="http://www.w3.org/2000/svg">
<path d="M17.75 3C18.612 3 19.4386 3.34241 20.0481 3.9519C20.6576 4.5614 21 5.38805 21 6.25V12.02C20.5324 11.721 20.0282 11.4834 19.5 11.313V8.5H4.5V17.75C4.5 18.716 5.284 19.5 6.25 19.5H11.313C11.398 19.762 11.499 20.017 11.615 20.264L11.39 21H6.25C5.38805 21 4.5614 20.6576 3.9519 20.0481C3.34241 19.4386 3 18.612 3 17.75V6.25C3 5.38805 3.34241 4.5614 3.9519 3.9519C4.5614 3.34241 5.38805 3 6.25 3H17.75ZM17.75 4.5H6.25C5.78587 4.5 5.34075 4.68437 5.01256 5.01256C4.68437 5.34075 4.5 5.78587 4.5 6.25V7H19.5V6.25C19.5 5.78587 19.3156 5.34075 18.9874 5.01256C18.6592 4.68437 18.2141 4.5 17.75 4.5ZM19.5 12.374C20.0436 12.5865 20.55 12.8842 21 13.256C22.0613 14.1277 22.7581 15.3649 22.9535 16.7243C23.1489 18.0837 22.8287 19.4671 22.0558 20.6024C21.283 21.7377 20.1134 22.5429 18.7771 22.8596C17.4407 23.1763 16.0342 22.9817 14.834 22.314L12.647 22.98C12.5602 23.0065 12.4678 23.0089 12.3797 22.9869C12.2917 22.9649 12.2113 22.9193 12.1471 22.8551C12.083 22.7908 12.0376 22.7104 12.0157 22.6223C11.9938 22.5342 11.9963 22.4418 12.023 22.355L12.689 20.169C12.2256 19.3334 11.9878 18.3915 11.999 17.4361C12.0103 16.4806 12.2703 15.5446 12.7533 14.7202C13.2363 13.8957 13.9257 13.2113 14.7537 12.7343C15.5816 12.2574 16.5195 12.0043 17.475 12H17.501C18.206 12 18.881 12.133 19.5 12.374ZM19.502 17.001C19.6346 17.001 19.7618 16.9483 19.8556 16.8546C19.9493 16.7608 20.002 16.6336 20.002 16.501C20.002 16.3684 19.9493 16.2412 19.8556 16.1474C19.7618 16.0537 19.6346 16.001 19.502 16.001H15.5C15.3674 16.001 15.2402 16.0537 15.1464 16.1474C15.0527 16.2412 15 16.3684 15 16.501C15 16.6336 15.0527 16.7608 15.1464 16.8546C15.2402 16.9483 15.3674 17.001 15.5 17.001H19.5H19.502ZM15.501 19.001H17.501C17.6336 19.001 17.7608 18.9483 17.8546 18.8546C17.9483 18.7608 18.001 18.6336 18.001 18.501C18.001 18.3684 17.9483 18.2412 17.8546 18.1474C17.7608 18.0537 17.6336 18.001 17.501 18.001H15.501C15.3684 18.001 15.2412 18.0537 15.1474 18.1474C15.0537 18.2412 15.001 18.3684 15.001 18.501C15.001 18.6336 15.0537 18.7608 15.1474 18.8546C15.2412 18.9483 15.3684 19.001 15.501 19.001ZM15.028 11.487C15.7357 11.196 16.4893 11.0328 17.254 11.005C17.1113 10.8112 16.9155 10.6627 16.6904 10.5776C16.4652 10.4925 16.2202 10.4743 15.9849 10.5252C15.7497 10.5762 15.5341 10.6941 15.3644 10.8647C15.1946 11.0354 15.0778 11.2515 15.028 11.487ZM11.065 16.58C11.166 15.8657 11.3861 15.1735 11.716 14.532C11.5049 14.5811 11.3102 14.6842 11.151 14.8313C10.9918 14.9784 10.8736 15.1643 10.808 15.3708C10.7423 15.5774 10.7315 15.7974 10.7765 16.0094C10.8216 16.2214 10.921 16.418 11.065 16.58ZM7.75 14.5C8.08152 14.5 8.39946 14.6317 8.63388 14.8661C8.8683 15.1005 9 15.4185 9 15.75C9 16.0815 8.8683 16.3995 8.63388 16.6339C8.39946 16.8683 8.08152 17 7.75 17C7.41848 17 7.10054 16.8683 6.86612 16.6339C6.6317 16.3995 6.5 16.0815 6.5 15.75C6.5 15.4185 6.6317 15.1005 6.86612 14.8661C7.10054 14.6317 7.41848 14.5 7.75 14.5ZM7.75 10.5C8.08152 10.5 8.39946 10.6317 8.63388 10.8661C8.8683 11.1005 9 11.4185 9 11.75C9 12.0815 8.8683 12.3995 8.63388 12.6339C8.39946 12.8683 8.08152 13 7.75 13C7.41848 13 7.10054 12.8683 6.86612 12.6339C6.6317 12.3995 6.5 12.0815 6.5 11.75C6.5 11.4185 6.6317 11.1005 6.86612 10.8661C7.10054 10.6317 7.41848 10.5 7.75 10.5ZM12 10.5C12.3315 10.5 12.6495 10.6317 12.8839 10.8661C13.1183 11.1005 13.25 11.4185 13.25 11.75C13.25 12.0815 13.1183 12.3995 12.8839 12.6339C12.6495 12.8683 12.3315 13 12 13C11.6685 13 11.3505 12.8683 11.1161 12.6339C10.8817 12.3995 10.75 12.0815 10.75 11.75C10.75 11.4185 10.8817 11.1005 11.1161 10.8661C11.3505 10.6317 11.6685 10.5 12 10.5Z" fill="$fill"/>
</svg>
