<svg width="21" height="22" viewBox="0 0 21 22" fill="none" xmlns="http://www.w3.org/2000/svg">
<g opacity="$opacity">
<path d="M0.928711 3.50056C0.928711 2.90901 1.18457 2.33193 1.65637 1.89927C2.12962 1.46527 2.78006 1.21484 3.4664 1.21484H16.0845C16.7708 1.21484 17.4213 1.46527 17.8945 1.89927C18.3663 2.33193 18.6222 2.90901 18.6222 3.50056V13.6358C18.5684 13.6777 18.5161 13.7219 18.4655 13.7683L18.2202 13.9933V3.50056C18.2202 2.95547 17.9837 2.44245 17.579 2.07139C17.1759 1.70166 16.6376 1.50056 16.0845 1.50056H3.4664C2.91328 1.50056 2.37504 1.70166 1.97186 2.07139C1.56723 2.44245 1.33072 2.95547 1.33072 3.50056V18.5006C1.33072 19.6446 2.329 20.5006 3.4664 20.5006H10.8128L11.1244 20.7863H3.4664C2.78006 20.7863 2.12962 20.5358 1.65637 20.1018C1.18457 19.6692 0.928711 19.0921 0.928711 18.5006V3.50056Z" fill="$fill" stroke="$stroke"/>
<path d="M6.00368 6.50112C6.00368 6.63801 5.94477 6.77905 5.82354 6.89022C5.70086 7.00273 5.52589 7.07254 5.33533 7.07254C5.14478 7.07254 4.96981 7.00273 4.84713 6.89022C4.7259 6.77905 4.66699 6.63801 4.66699 6.50112C4.66699 6.36422 4.7259 6.22318 4.84713 6.11201C4.96981 5.99951 5.14478 5.92969 5.33533 5.92969C5.52589 5.92969 5.70086 5.99951 5.82354 6.11201C5.94477 6.22318 6.00368 6.36422 6.00368 6.50112Z" fill="$fill" stroke="$stroke"/>
<path d="M5.82354 11.3902C5.70086 11.5027 5.52589 11.5725 5.33533 11.5725C5.14478 11.5725 4.96981 11.5027 4.84713 11.3902C4.7259 11.2791 4.66699 11.138 4.66699 11.0011C4.66699 10.8642 4.7259 10.7232 4.84713 10.612C4.96981 10.4995 5.14478 10.4297 5.33533 10.4297C5.52589 10.4297 5.70086 10.4995 5.82354 10.612C5.94477 10.7232 6.00368 10.8642 6.00368 11.0011C6.00368 11.138 5.94477 11.2791 5.82354 11.3902Z" fill="$fill" stroke="$stroke"/>
<path d="M5.82354 15.8902C5.70086 16.0027 5.52589 16.0725 5.33533 16.0725C5.14478 16.0725 4.96981 16.0027 4.84713 15.8902C4.7259 15.7791 4.66699 15.638 4.66699 15.5011C4.66699 15.3642 4.7259 15.2232 4.84713 15.112C4.96981 14.9995 5.14478 14.9297 5.33533 14.9297C5.52589 14.9297 5.70086 14.9995 5.82354 15.112C5.94477 15.2232 6.00368 15.3642 6.00368 15.5011C6.00368 15.638 5.94477 15.7791 5.82354 15.8902Z" fill="$fill" stroke="$stroke"/>
<path d="M8.44951 6.41617C8.48455 6.38404 8.54065 6.35938 8.60725 6.35938H14.6826C14.7492 6.35938 14.8053 6.38404 14.8404 6.41617C14.874 6.44697 14.8836 6.479 14.8836 6.50223C14.8836 6.52546 14.874 6.55749 14.8404 6.58829C14.8053 6.62042 14.7492 6.64509 14.6826 6.64509H8.60725C8.54065 6.64509 8.48455 6.62042 8.44951 6.58829C8.41592 6.55749 8.40625 6.52546 8.40625 6.50223C8.40625 6.479 8.41592 6.44697 8.44951 6.41617Z" fill="$fill" stroke="$stroke"/>
<path d="M8.40625 11.0022C8.40625 10.979 8.41592 10.947 8.44951 10.9162C8.48455 10.884 8.54065 10.8594 8.60725 10.8594H14.6826C14.7492 10.8594 14.8053 10.884 14.8404 10.9162C14.874 10.947 14.8836 10.979 14.8836 11.0022C14.8836 11.0255 14.874 11.0575 14.8404 11.0883C14.8053 11.1204 14.7492 11.1451 14.6826 11.1451H8.60725C8.54065 11.1451 8.48455 11.1204 8.44951 11.0883C8.41592 11.0575 8.40625 11.0255 8.40625 11.0022Z" fill="$fill" stroke="$stroke"/>
<path d="M8.44951 15.4162C8.48454 15.384 8.54064 15.3594 8.60725 15.3594H14.6826C14.7492 15.3594 14.8053 15.384 14.8404 15.4162C14.874 15.447 14.8836 15.479 14.8836 15.5022C14.8836 15.5255 14.874 15.5575 14.8404 15.5883C14.8053 15.6204 14.7492 15.6451 14.6826 15.6451H8.60725C8.54064 15.6451 8.48454 15.6204 8.44951 15.5883C8.41592 15.5575 8.40625 15.5255 8.40625 15.5022C8.40625 15.479 8.41592 15.447 8.44951 15.4162Z" fill="$fill" stroke="$stroke"/>
<path d="M20.454 15.5826L20.7854 15.957L20.4474 15.5885L14.8396 20.7312C14.8396 20.7312 14.8395 20.7313 14.8395 20.7313C14.8044 20.7633 14.7484 20.7879 14.682 20.7879C14.6155 20.7879 14.5595 20.7633 14.5244 20.7313C14.5244 20.7313 14.5243 20.7312 14.5243 20.7312L11.731 18.1696C11.7037 18.1408 11.6959 18.1119 11.6963 18.0902C11.6967 18.0673 11.7067 18.036 11.7395 18.0059C11.7737 17.9745 11.8281 17.9501 11.893 17.9491C11.9553 17.9481 12.0094 17.9689 12.0458 17.9979L14.3441 20.1047L14.682 20.4145L15.0199 20.1047L20.1326 15.4161L20.1326 15.4162L20.1387 15.4104C20.1554 15.3946 20.1776 15.3798 20.2053 15.3689C20.233 15.358 20.2641 15.3518 20.2966 15.3516C20.3291 15.3513 20.3605 15.3571 20.3885 15.3676C20.4165 15.3781 20.4393 15.3927 20.4564 15.4084C20.4735 15.4241 20.4844 15.4403 20.4908 15.4548C20.4972 15.4691 20.4997 15.4827 20.4996 15.4953C20.4995 15.5079 20.4967 15.5216 20.4899 15.5361C20.483 15.5507 20.4716 15.567 20.454 15.5826Z" fill="$fill" stroke="$stroke"/>
</g>
</svg>
